# Blender v2.80 (sub 75) OBJ File: 'angryBirdHead.blend'
# www.blender.org
mtllib angryBirdHead.mtl
o Cube_Cube.001
v -1.000000 -1.000000 1.000000
v -1.000000 1.000000 1.000000
v -1.000000 -1.000000 -1.000000
v -1.000000 1.000000 -1.000000
v 1.000000 -1.000000 1.000000
v 1.000000 1.000000 1.000000
v 1.000000 -1.000000 -1.000000
v 1.000000 1.000000 -1.000000
v 0.600000 -1.000000 -1.000000
v 0.200000 -1.000000 -1.000000
v -0.200000 -1.000000 -1.000000
v -0.600000 -1.000000 -1.000000
v -0.600000 1.000000 -1.000000
v -0.200000 1.000000 -1.000000
v 0.200000 1.000000 -1.000000
v 0.600000 1.000000 -1.000000
v -0.600000 -1.000000 1.000000
v -0.200000 -1.000000 1.000000
v 0.200000 -1.000000 1.000000
v 0.600000 -1.000000 1.000000
v 0.600000 1.000000 1.000000
v 0.200000 1.000000 1.000000
v -0.200000 1.000000 1.000000
v -0.600000 1.000000 1.000000
v -1.000000 -0.500000 1.000000
v -1.000000 0.000000 1.000000
v -1.000000 0.500000 1.000000
v -1.000000 0.500000 -1.000000
v -1.000000 0.000000 -1.000000
v -1.000000 -0.500000 -1.000000
v 1.000000 0.500000 -1.000000
v 1.000000 0.000000 -1.000000
v 1.000000 -0.500000 -1.000000
v 1.000000 0.500000 1.000000
v 1.000000 0.000000 1.000000
v 1.000000 -0.500000 1.000000
v 0.738112 0.730519 1.000000
v 0.738112 0.115426 1.000000
v 0.600000 -0.500000 1.000000
v 0.246037 0.433301 1.000000
v 0.246037 0.115426 1.000000
v 0.200000 -0.500000 1.000000
v -0.246037 0.433301 1.000000
v -0.246037 0.115426 1.000000
v -0.200000 -0.500000 1.000000
v -0.738112 0.730519 1.000000
v -0.738112 0.115426 1.000000
v -0.600000 -0.500000 1.000000
v -0.600000 0.500000 -1.000000
v -0.600000 0.000000 -1.000000
v -0.600000 -0.500000 -1.000000
v -0.200000 0.500000 -1.000000
v -0.200000 0.000000 -1.000000
v -0.200000 -0.500000 -1.000000
v 0.200000 0.500000 -1.000000
v 0.200000 0.000000 -1.000000
v 0.200000 -0.500000 -1.000000
v 0.600000 0.500000 -1.000000
v 0.600000 0.000000 -1.000000
v 0.600000 -0.500000 -1.000000
v 0.738112 0.730519 0.189688
v 0.738112 0.115426 0.189688
v 0.246037 0.433301 0.189688
v 0.246037 0.115426 0.189688
v -0.246037 0.433301 0.189688
v -0.246037 0.115426 0.189688
v -0.738112 0.730519 0.189688
v -0.738112 0.115426 0.189688
v -1.000000 -0.204545 1.000000
v -1.000000 -0.204545 -1.000000
v 1.000000 -0.204545 -1.000000
v 1.000000 -0.204545 1.000000
v 0.681611 -0.136339 1.000000
v 0.227204 -0.136339 1.000000
v -0.227204 -0.136339 1.000000
v -0.681611 -0.136339 1.000000
v -0.600000 -0.204545 -1.000000
v -0.200000 -0.204545 -1.000000
v 0.200000 -0.204545 -1.000000
v 0.600000 -0.204545 -1.000000
v 0.227204 -0.278392 7.584615
v 0.200000 -0.357948 7.584615
v -0.227204 -0.278392 7.584615
v -0.200000 -0.357948 7.584615
v -1.000000 -1.000000 -0.500000
v -1.000000 -1.000000 0.000000
v -1.000000 -1.000000 0.500000
v -1.000000 1.000000 0.500000
v -1.000000 1.000000 0.000000
v -1.000000 1.000000 -0.500000
v 1.000000 -1.000000 0.500000
v 1.000000 -1.000000 0.000000
v 1.000000 -1.000000 -0.500000
v 1.000000 1.000000 -0.500000
v 1.000000 1.000000 0.000000
v 1.000000 1.000000 0.500000
v 0.600000 1.000000 -0.500000
v 0.600000 1.000000 0.000000
v 0.600000 1.000000 0.500000
v 0.200000 1.000000 -0.500000
v 0.200000 1.000000 0.000000
v 0.200000 1.000000 0.500000
v -0.200000 1.000000 -0.500000
v -0.200000 1.000000 0.000000
v -0.200000 1.000000 0.500000
v -0.600000 1.000000 -0.500000
v -0.600000 1.000000 0.000000
v -0.600000 1.000000 0.500000
v -0.600000 -1.000000 -0.500000
v -0.600000 -1.000000 0.000000
v -0.600000 -1.000000 0.500000
v -0.200000 -1.000000 -0.500000
v -0.200000 -1.000000 0.000000
v -0.200000 -1.000000 0.500000
v 0.200000 -1.000000 -0.500000
v 0.200000 -1.000000 0.000000
v 0.200000 -1.000000 0.500000
v 0.600000 -1.000000 -0.500000
v 0.600000 -1.000000 0.000000
v 0.600000 -1.000000 0.500000
v 1.000000 -0.500000 -0.500000
v 1.000000 -0.500000 0.000000
v 1.000000 -0.500000 0.500000
v 1.000000 0.000000 -0.500000
v 1.000000 0.000000 0.000000
v 1.000000 0.000000 0.500000
v 1.000000 0.500000 -0.500000
v 1.000000 0.500000 0.000000
v 1.000000 0.500000 0.500000
v -1.000000 -0.500000 0.500000
v -1.000000 -0.500000 0.000000
v -1.000000 -0.500000 -0.500000
v -1.000000 0.000000 0.500000
v -1.000000 0.000000 0.000000
v -1.000000 0.000000 -0.500000
v -1.000000 0.500000 0.500000
v -1.000000 0.500000 0.000000
v -1.000000 0.500000 -0.500000
v -1.000000 -0.204545 0.500000
v -1.000000 -0.204545 0.000000
v -1.000000 -0.204545 -0.500000
v 1.000000 -0.204545 -0.500000
v 1.000000 -0.204545 0.000000
v 1.000000 -0.204545 0.500000
v 1.720962 2.351461 -0.023262
v 1.720962 2.351461 0.124359
v 0.573654 2.351461 -0.023262
v 0.573654 2.351461 0.124359
v -0.573654 2.351461 -0.023262
v -0.573654 2.351461 0.124359
v -1.720962 2.351461 -0.023262
v -1.720962 2.351461 0.124359
vt 0.625000 0.187500
vt 0.562500 0.250000
vt 0.562500 0.187500
vt 0.625000 0.450000
vt 0.562500 0.500000
vt 0.562500 0.450000
vt 0.625000 0.687500
vt 0.562500 0.750000
vt 0.562500 0.687500
vt 0.562500 0.950000
vt 0.625000 1.000000
vt 0.562500 1.000000
vt 0.375000 0.687500
vt 0.325000 0.750000
vt 0.325000 0.687500
vt 0.875000 0.687500
vt 0.825000 0.750000
vt 0.825000 0.687500
vt 0.675000 0.687500
vt 0.625000 0.750000
vt 0.725000 0.687500
vt 0.675000 0.750000
vt 0.775000 0.687500
vt 0.725000 0.750000
vt 0.775000 0.750000
vt 0.175000 0.687500
vt 0.125000 0.750000
vt 0.125000 0.687500
vt 0.225000 0.687500
vt 0.175000 0.750000
vt 0.275000 0.687500
vt 0.225000 0.750000
vt 0.275000 0.750000
vt 0.562500 0.800000
vt 0.625000 0.850000
vt 0.562500 0.850000
vt 0.562500 0.900000
vt 0.625000 0.900000
vt 0.625000 0.250000
vt 0.562500 0.300000
vt 0.625000 0.300000
vt 0.562500 0.350000
vt 0.625000 0.350000
vt 0.562500 0.400000
vt 0.625000 0.400000
vt 0.437500 0.400000
vt 0.375000 0.450000
vt 0.375000 0.400000
vt 0.500000 0.400000
vt 0.474432 0.450000
vt 0.474432 0.400000
vt 0.500000 0.450000
vt 0.437500 0.350000
vt 0.375000 0.350000
vt 0.500000 0.350000
vt 0.474432 0.350000
vt 0.437500 0.300000
vt 0.375000 0.300000
vt 0.500000 0.300000
vt 0.474432 0.300000
vt 0.437500 0.250000
vt 0.375000 0.250000
vt 0.500000 0.250000
vt 0.474432 0.250000
vt 0.437500 0.900000
vt 0.375000 0.950000
vt 0.375000 0.900000
vt 0.500000 0.900000
vt 0.474432 0.950000
vt 0.474432 0.900000
vt 0.500000 0.900000
vt 0.437500 0.850000
vt 0.375000 0.850000
vt 0.500000 0.850000
vt 0.474432 0.850000
vt 0.437500 0.800000
vt 0.375000 0.800000
vt 0.474432 0.800000
vt 0.562500 0.800000
vt 0.437500 0.750000
vt 0.375000 0.750000
vt 0.500000 0.750000
vt 0.474432 0.750000
vt 0.500000 0.800000
vt 0.437500 0.950000
vt 0.375000 1.000000
vt 0.500000 1.000000
vt 0.474432 1.000000
vt 0.500000 0.950000
vt 0.437500 0.687500
vt 0.500000 0.687500
vt 0.474432 0.687500
vt 0.437500 0.450000
vt 0.375000 0.500000
vt 0.474432 0.500000
vt 0.500000 0.500000
vt 0.437500 0.187500
vt 0.375000 0.187500
vt 0.500000 0.187500
vt 0.474432 0.187500
vt 0.562500 0.900000
vt 0.500000 0.950000
vt 0.500000 0.800000
vt 0.562500 0.850000
vt 0.500000 0.850000
vt 0.562500 0.950000
vt 0.437500 0.500000
vt 0.437500 1.000000
vt 0.437500 0.850000
vt 0.474432 0.850000
vt 0.437500 0.900000
vt 0.474432 0.900000
vt 0.437500 0.562500
vt 0.474432 0.562500
vt 0.437500 0.625000
vt 0.474432 0.625000
vt 0.474432 0.000000
vt 0.437500 0.062500
vt 0.437500 0.000000
vt 0.474432 0.062500
vt 0.437500 0.125000
vt 0.474432 0.125000
vt 0.562500 0.000000
vt 0.500000 0.062500
vt 0.500000 0.000000
vt 0.562500 0.062500
vt 0.500000 0.125000
vt 0.562500 0.125000
vt 0.375000 0.062500
vt 0.375000 0.000000
vt 0.375000 0.125000
vt 0.500000 0.562500
vt 0.562500 0.562500
vt 0.500000 0.625000
vt 0.562500 0.625000
vt 0.375000 0.562500
vt 0.375000 0.625000
vt 0.325000 0.500000
vt 0.275000 0.562500
vt 0.275000 0.500000
vt 0.325000 0.562500
vt 0.275000 0.625000
vt 0.325000 0.625000
vt 0.225000 0.562500
vt 0.225000 0.500000
vt 0.225000 0.625000
vt 0.175000 0.562500
vt 0.175000 0.500000
vt 0.175000 0.625000
vt 0.125000 0.562500
vt 0.125000 0.500000
vt 0.125000 0.625000
vt 0.825000 0.500000
vt 0.775000 0.562500
vt 0.775000 0.500000
vt 0.825000 0.562500
vt 0.775000 0.625000
vt 0.825000 0.625000
vt 0.775000 0.625000
vt 0.725000 0.562500
vt 0.725000 0.500000
vt 0.725000 0.625000
vt 0.675000 0.562500
vt 0.675000 0.500000
vt 0.675000 0.625000
vt 0.725000 0.625000
vt 0.675000 0.625000
vt 0.625000 0.562500
vt 0.625000 0.500000
vt 0.625000 0.625000
vt 0.875000 0.500000
vt 0.875000 0.562500
vt 0.875000 0.625000
vt 0.625000 0.000000
vt 0.625000 0.062500
vt 0.625000 0.125000
vt 0.825000 0.625000
vt 0.775000 0.687500
vt 0.675000 0.687500
vt 0.725000 0.687500
vt 0.825000 0.687500
vt 0.625000 0.950000
vt 0.875000 0.750000
vt 0.625000 0.800000
vn -1.0000 0.0000 0.0000
vn 0.0000 0.0000 -1.0000
vn 1.0000 0.0000 0.0000
vn 0.0000 0.0000 1.0000
vn 0.0000 -1.0000 0.0000
vn 0.0000 1.0000 0.0000
vn 0.5170 -0.8560 0.0000
vn -0.5170 -0.8560 0.0000
vn 0.9972 -0.0746 0.0016
vn -0.9972 -0.0746 -0.0016
vn 0.0000 -0.9998 0.0216
vn 0.0000 0.9998 0.0216
vn 0.0000 -0.0172 -0.9999
vn 0.9638 0.2665 0.0000
vn 0.0000 0.2678 0.9635
vn 0.7697 -0.6384 0.0000
vn -0.7697 -0.6384 0.0000
vn -0.9638 0.2665 0.0000
vn 0.9462 -0.3235 -0.0070
vn -0.9462 -0.3235 0.0070
usemtl None
s off
f 90/1/1 28/2/1 138/3/1
f 16/4/2 31/5/2 58/6/2
f 96/7/3 34/8/3 129/9/3
f 46/10/4 2/11/4 27/12/4
f 91/13/5 20/14/5 120/15/5
f 88/16/6 24/17/6 108/18/6
f 99/19/6 6/20/6 96/7/6
f 102/21/6 21/22/6 99/19/6
f 105/23/6 22/24/6 102/21/6
f 108/18/6 23/25/6 105/23/6
f 111/26/5 1/27/5 87/28/5
f 114/29/5 17/30/5 111/26/5
f 117/31/5 18/32/5 114/29/5
f 120/15/5 19/33/5 117/31/5
f 6/20/4 37/34/4 34/8/4
f 37/34/4 22/35/4 40/36/4
f 22/35/4 43/37/4 40/36/4
f 23/38/4 46/10/4 43/37/4
f 4/39/2 49/40/2 28/2/2
f 13/41/2 52/42/2 49/40/2
f 14/43/2 55/44/2 52/42/2
f 15/45/2 58/6/2 55/44/2
f 57/46/2 9/47/2 10/48/2
f 56/49/2 80/50/2 79/51/2
f 55/44/2 59/52/2 56/49/2
f 54/53/2 10/48/2 11/54/2
f 53/55/2 79/51/2 78/56/2
f 52/42/2 56/49/2 53/55/2
f 51/57/2 11/54/2 12/58/2
f 50/59/2 78/56/2 77/60/2
f 49/40/2 53/55/2 50/59/2
f 30/61/2 12/58/2 3/62/2
f 29/63/2 77/60/2 70/64/2
f 28/2/2 50/59/2 29/63/2
f 45/65/4 17/66/4 18/67/4
f 44/68/4 76/69/4 75/70/4
f 43/37/1 66/71/1 44/68/1
f 42/72/4 18/67/4 19/73/4
f 41/74/4 75/70/4 74/75/4
f 40/36/4 44/68/4 41/74/4
f 39/76/4 19/73/4 20/77/4
f 73/78/4 41/74/4 74/75/4
f 40/36/7 61/79/7 37/34/7
f 36/80/4 20/77/4 5/81/4
f 35/82/4 73/78/4 72/83/4
f 34/8/4 38/84/4 35/82/4
f 48/85/4 1/86/4 17/66/4
f 76/69/4 26/87/4 69/88/4
f 47/89/4 27/12/4 26/87/4
f 123/90/3 5/81/3 91/13/3
f 126/91/3 72/83/3 144/92/3
f 129/9/3 35/82/3 126/91/3
f 60/93/2 7/94/2 9/47/2
f 59/52/2 71/95/2 80/50/2
f 58/6/2 32/96/2 59/52/2
f 132/97/1 3/62/1 85/98/1
f 135/99/1 70/64/1 141/100/1
f 138/3/1 29/63/1 135/99/1
f 65/101/4 68/102/4 66/71/4
f 62/103/4 63/104/4 64/105/4
f 46/10/8 65/101/8 43/37/8
f 37/34/1 62/103/1 38/84/1
f 38/84/6 64/105/6 41/74/6
f 47/89/3 67/106/3 46/10/3
f 44/68/6 68/102/6 47/89/6
f 41/74/3 63/104/3 40/36/3
f 141/100/1 30/61/1 132/97/1
f 80/50/2 33/107/2 60/93/2
f 144/92/3 36/80/3 123/90/3
f 76/69/4 25/108/4 48/85/4
f 36/80/4 73/78/4 39/76/4
f 39/76/4 74/75/4 42/72/4
f 74/75/9 82/109/9 42/72/9
f 75/70/4 48/85/4 45/65/4
f 70/64/2 51/57/2 30/61/2
f 77/60/2 54/53/2 51/57/2
f 78/56/2 57/46/2 54/53/2
f 79/51/2 60/93/2 57/46/2
f 81/110/4 84/111/4 82/109/4
f 45/65/10 83/112/10 75/70/10
f 42/72/11 84/111/11 45/65/11
f 75/70/12 81/110/12 74/75/12
f 71/95/3 121/113/3 33/107/3
f 142/114/3 122/115/3 121/113/3
f 143/116/3 123/90/3 122/115/3
f 69/117/1 130/118/1 25/119/1
f 139/120/1 131/121/1 130/118/1
f 140/122/1 132/97/1 131/121/1
f 27/123/1 133/124/1 26/125/1
f 136/126/1 134/127/1 133/124/1
f 137/128/1 135/99/1 134/127/1
f 26/125/1 139/120/1 69/117/1
f 133/124/1 140/122/1 139/120/1
f 134/127/1 141/100/1 140/122/1
f 25/119/1 87/129/1 1/130/1
f 130/118/1 86/131/1 87/129/1
f 131/121/1 85/98/1 86/131/1
f 31/5/3 124/132/3 32/96/3
f 127/133/3 125/134/3 124/132/3
f 128/135/3 126/91/3 125/134/3
f 32/96/3 142/114/3 71/95/3
f 124/132/3 143/116/3 142/114/3
f 125/134/3 144/92/3 143/116/3
f 33/107/3 93/136/3 7/94/3
f 121/113/3 92/137/3 93/136/3
f 122/115/3 91/13/3 92/137/3
f 9/138/5 115/139/5 10/140/5
f 118/141/5 116/142/5 115/139/5
f 119/143/5 117/31/5 116/142/5
f 10/140/5 112/144/5 11/145/5
f 115/139/5 113/146/5 112/144/5
f 116/142/5 114/29/5 113/146/5
f 11/145/5 109/147/5 12/148/5
f 112/144/5 110/149/5 109/147/5
f 113/146/5 111/26/5 110/149/5
f 12/148/5 85/150/5 3/151/5
f 109/147/5 86/152/5 85/150/5
f 110/149/5 87/28/5 86/152/5
f 13/153/6 103/154/6 14/155/6
f 106/156/6 104/157/6 103/154/6
f 107/158/13 149/159/13 104/157/13
f 14/155/6 100/160/6 15/161/6
f 103/154/6 101/162/6 100/160/6
f 104/157/6 102/21/6 101/162/6
f 15/161/6 97/163/6 16/164/6
f 100/160/6 98/165/6 97/163/6
f 98/165/13 147/166/13 145/167/13
f 16/164/6 94/168/6 8/169/6
f 97/163/6 95/170/6 94/168/6
f 98/165/6 96/7/6 95/170/6
f 4/171/6 106/156/6 13/153/6
f 90/172/6 107/158/6 106/156/6
f 89/173/6 108/18/6 107/158/6
f 7/94/5 118/141/5 9/138/5
f 93/136/5 119/143/5 118/141/5
f 92/137/5 120/15/5 119/143/5
f 8/169/3 127/133/3 31/5/3
f 94/168/3 128/135/3 127/133/3
f 95/170/3 129/9/3 128/135/3
f 2/174/1 136/126/1 27/123/1
f 88/175/1 137/128/1 136/126/1
f 89/176/1 138/3/1 137/128/1
f 151/177/6 150/178/6 149/159/6
f 147/166/6 146/179/6 145/167/6
f 104/157/14 150/178/14 105/23/14
f 99/19/15 148/180/15 102/21/15
f 98/165/16 146/179/16 99/19/16
f 107/158/17 152/181/17 151/177/17
f 108/18/15 150/178/15 152/181/15
f 101/162/18 148/180/18 147/166/18
f 90/1/1 4/39/1 28/2/1
f 16/4/2 8/169/2 31/5/2
f 96/7/3 6/20/3 34/8/3
f 46/10/4 24/182/4 2/11/4
f 91/13/5 5/81/5 20/14/5
f 88/16/6 2/183/6 24/17/6
f 99/19/6 21/22/6 6/20/6
f 102/21/6 22/24/6 21/22/6
f 105/23/6 23/25/6 22/24/6
f 108/18/6 24/17/6 23/25/6
f 111/26/5 17/30/5 1/27/5
f 114/29/5 18/32/5 17/30/5
f 117/31/5 19/33/5 18/32/5
f 120/15/5 20/14/5 19/33/5
f 6/20/4 21/184/4 37/34/4
f 37/34/4 21/184/4 22/35/4
f 22/35/4 23/38/4 43/37/4
f 23/38/4 24/182/4 46/10/4
f 4/39/2 13/41/2 49/40/2
f 13/41/2 14/43/2 52/42/2
f 14/43/2 15/45/2 55/44/2
f 15/45/2 16/4/2 58/6/2
f 57/46/2 60/93/2 9/47/2
f 56/49/2 59/52/2 80/50/2
f 55/44/2 58/6/2 59/52/2
f 54/53/2 57/46/2 10/48/2
f 53/55/2 56/49/2 79/51/2
f 52/42/2 55/44/2 56/49/2
f 51/57/2 54/53/2 11/54/2
f 50/59/2 53/55/2 78/56/2
f 49/40/2 52/42/2 53/55/2
f 30/61/2 51/57/2 12/58/2
f 29/63/2 50/59/2 77/60/2
f 28/2/2 49/40/2 50/59/2
f 45/65/4 48/85/4 17/66/4
f 44/68/4 47/89/4 76/69/4
f 43/37/1 65/101/1 66/71/1
f 42/72/4 45/65/4 18/67/4
f 41/74/4 44/68/4 75/70/4
f 40/36/4 43/37/4 44/68/4
f 39/76/4 42/72/4 19/73/4
f 73/78/4 38/84/4 41/74/4
f 40/36/7 63/104/7 61/79/7
f 36/80/4 39/76/4 20/77/4
f 35/82/4 38/84/4 73/78/4
f 34/8/4 37/34/4 38/84/4
f 48/85/4 25/108/4 1/86/4
f 76/69/4 47/89/4 26/87/4
f 47/89/4 46/10/4 27/12/4
f 123/90/3 36/80/3 5/81/3
f 126/91/3 35/82/3 72/83/3
f 129/9/3 34/8/3 35/82/3
f 60/93/2 33/107/2 7/94/2
f 59/52/2 32/96/2 71/95/2
f 58/6/2 31/5/2 32/96/2
f 132/97/1 30/61/1 3/62/1
f 135/99/1 29/63/1 70/64/1
f 138/3/1 28/2/1 29/63/1
f 65/101/4 67/106/4 68/102/4
f 62/103/4 61/79/4 63/104/4
f 46/10/8 67/106/8 65/101/8
f 37/34/1 61/79/1 62/103/1
f 38/84/6 62/103/6 64/105/6
f 47/89/3 68/102/3 67/106/3
f 44/68/6 66/71/6 68/102/6
f 41/74/3 64/105/3 63/104/3
f 141/100/1 70/64/1 30/61/1
f 80/50/2 71/95/2 33/107/2
f 144/92/3 72/83/3 36/80/3
f 76/69/4 69/88/4 25/108/4
f 36/80/4 72/83/4 73/78/4
f 39/76/4 73/78/4 74/75/4
f 74/75/19 81/110/19 82/109/19
f 75/70/4 76/69/4 48/85/4
f 70/64/2 77/60/2 51/57/2
f 77/60/2 78/56/2 54/53/2
f 78/56/2 79/51/2 57/46/2
f 79/51/2 80/50/2 60/93/2
f 81/110/4 83/112/4 84/111/4
f 45/65/20 84/111/20 83/112/20
f 42/72/11 82/109/11 84/111/11
f 75/70/12 83/112/12 81/110/12
f 71/95/3 142/114/3 121/113/3
f 142/114/3 143/116/3 122/115/3
f 143/116/3 144/92/3 123/90/3
f 69/117/1 139/120/1 130/118/1
f 139/120/1 140/122/1 131/121/1
f 140/122/1 141/100/1 132/97/1
f 27/123/1 136/126/1 133/124/1
f 136/126/1 137/128/1 134/127/1
f 137/128/1 138/3/1 135/99/1
f 26/125/1 133/124/1 139/120/1
f 133/124/1 134/127/1 140/122/1
f 134/127/1 135/99/1 141/100/1
f 25/119/1 130/118/1 87/129/1
f 130/118/1 131/121/1 86/131/1
f 131/121/1 132/97/1 85/98/1
f 31/5/3 127/133/3 124/132/3
f 127/133/3 128/135/3 125/134/3
f 128/135/3 129/9/3 126/91/3
f 32/96/3 124/132/3 142/114/3
f 124/132/3 125/134/3 143/116/3
f 125/134/3 126/91/3 144/92/3
f 33/107/3 121/113/3 93/136/3
f 121/113/3 122/115/3 92/137/3
f 122/115/3 123/90/3 91/13/3
f 9/138/5 118/141/5 115/139/5
f 118/141/5 119/143/5 116/142/5
f 119/143/5 120/15/5 117/31/5
f 10/140/5 115/139/5 112/144/5
f 115/139/5 116/142/5 113/146/5
f 116/142/5 117/31/5 114/29/5
f 11/145/5 112/144/5 109/147/5
f 112/144/5 113/146/5 110/149/5
f 113/146/5 114/29/5 111/26/5
f 12/148/5 109/147/5 85/150/5
f 109/147/5 110/149/5 86/152/5
f 110/149/5 111/26/5 87/28/5
f 13/153/6 106/156/6 103/154/6
f 106/156/6 107/158/6 104/157/6
f 107/158/13 151/177/13 149/159/13
f 14/155/6 103/154/6 100/160/6
f 103/154/6 104/157/6 101/162/6
f 104/157/6 105/23/6 102/21/6
f 15/161/6 100/160/6 97/163/6
f 100/160/6 101/162/6 98/165/6
f 98/165/13 101/162/13 147/166/13
f 16/164/6 97/163/6 94/168/6
f 97/163/6 98/165/6 95/170/6
f 98/165/6 99/19/6 96/7/6
f 4/171/6 90/172/6 106/156/6
f 90/172/6 89/173/6 107/158/6
f 89/173/6 88/16/6 108/18/6
f 7/94/5 93/136/5 118/141/5
f 93/136/5 92/137/5 119/143/5
f 92/137/5 91/13/5 120/15/5
f 8/169/3 94/168/3 127/133/3
f 94/168/3 95/170/3 128/135/3
f 95/170/3 96/7/3 129/9/3
f 2/174/1 88/175/1 136/126/1
f 88/175/1 89/176/1 137/128/1
f 89/176/1 90/1/1 138/3/1
f 151/177/6 152/181/6 150/178/6
f 147/166/6 148/180/6 146/179/6
f 104/157/14 149/159/14 150/178/14
f 99/19/15 146/179/15 148/180/15
f 98/165/16 145/167/16 146/179/16
f 107/158/17 108/18/17 152/181/17
f 108/18/15 105/23/15 150/178/15
f 101/162/18 102/21/18 148/180/18
